<svg preserveAspectRatio="none" width="100%" height="100%" overflow="visible" style="display: block;" viewBox="0 0 70.625 20" fill="none" xmlns="http://www.w3.org/2000/svg">
<g id="MIDAS_SUPPORT 1" clip-path="url(#clip0_1726_7522)">
<path id="Vector" d="M27.3532 5.03952H29.6215L32.7883 12.4434L35.9554 5.03952H38.2092V14.9969H36.2122V8.52044L33.5445 14.9969H32.0324L29.3503 8.52044V14.9969H27.3532V5.03952Z" fill="var(--fill-0, white)"/>
<path id="Vector_2" d="M40.2506 5.0468H42.2477V15.0042H40.2506V5.0468Z" fill="var(--fill-0, white)"/>
<path id="Vector_3" d="M53.0193 10.0398C53.0193 13.0498 50.9508 15.0042 47.7695 15.0042H44.2888V5.0468H47.7695C50.9508 5.0468 53.0193 7.01561 53.0193 10.0398ZM47.6982 13.3066C49.7952 13.3066 50.9792 12.1084 50.9792 10.0398C50.9792 7.97127 49.7952 6.73017 47.6982 6.73017H46.2858V13.3066H47.6982Z" fill="var(--fill-0, white)"/>
<path id="Vector_4" d="M59.9107 13.1066H55.9451L55.2889 15.0039H53.1917L56.7723 5.03223H59.0977L62.6784 15.0039H60.5671L59.9107 13.1066ZM57.9279 7.34337L56.4871 11.5087H59.3687L57.9279 7.34337Z" fill="var(--fill-0, white)"/>
<path id="Vector_5" d="M66.8745 15.1011C64.806 15.1011 63.2083 14.0169 63.1797 12.1338H65.3195C65.3766 12.9326 65.9044 13.4604 66.8317 13.4604C67.7733 13.4604 68.3295 12.9613 68.3295 12.248C68.3295 10.0939 63.1941 11.3921 63.2083 7.78276C63.2083 5.9854 64.6633 4.90115 66.7177 4.90115C68.7576 4.90115 70.1555 5.94254 70.2839 7.74009H68.0872C68.0443 7.08389 67.5165 6.5703 66.6606 6.55588C65.876 6.52744 65.2911 6.91263 65.2911 7.72567C65.2911 9.72292 70.3981 8.61022 70.3981 12.1196C70.3981 13.6888 69.1428 15.1011 66.8745 15.1011Z" fill="var(--fill-0, white)"/>
<path id="Vector_6" d="M20 0H0V20H20V0Z" fill="var(--fill-0, white)"/>
<path id="Vector_7" d="M13.9478 5.73136L10.0558 9.62343H9.93989L6.04784 5.73136H3.79784V14.7314H6.04784V10.2314L9.88136 14.0647H10.1143L13.9478 10.2314V14.7314H16.1978V5.73136H13.9478Z" fill="var(--fill-0, black)"/>
</g>
<defs>
<clipPath id="clip0_1726_7522">
<rect width="70.625" height="20" fill="white"/>
</clipPath>
</defs>
</svg>
